Coordinates
version=1
nRows=31
nColumns=38
inDegrees=no

Units are S.I. units (second, meters, Newtons, ...)
If the header above contains a line with 'inDegrees', this indicates whether rotational values are in degrees (yes) or radians (no).

endheader
time	pelvis_tilt	pelvis_list	pelvis_rotation	pelvis_tx	pelvis_ty	pelvis_tz	hip_flexion_r	hip_adduction_r	hip_rotation_r	knee_angle_r	ankle_angle_r	subtalar_angle_r	mtp_angle_r	hip_flexion_l	hip_adduction_l	hip_rotation_l	knee_angle_l	ankle_angle_l	subtalar_angle_l	mtp_angle_l	lumbar_extension	lumbar_bending	lumbar_rotation	arm_flex_r	arm_add_r	arm_rot_r	elbow_flex_r	pro_sup_r	wrist_flex_r	wrist_dev_r	arm_flex_l	arm_add_l	arm_rot_l	elbow_flex_l	pro_sup_l	wrist_flex_l	wrist_dev_l
1.17	-3.11639	1.3959	-1.61115	0.892357	0.365415	0.938153	-0.3024	0.0401764	-0.236941	0.166797	0.16364	0	0	0.276657	-0.0336352	-0.324593	0.193121	0.0958838	0	0	-0.288843	-0.047181	0.104683	0.629425	-0.480612	0.205094	1.02563	1.38139	0	0	0.488495	-0.430995	0.0777698	1.31051	1.10718	0	0
1.18	-3.11912	1.39997	-1.60669	0.890953	0.374876	0.9353	-0.306617	0.0389457	-0.240869	0.174582	0.178554	0	0	0.262475	-0.018197	-0.305143	0.120875	0.0848845	0	0	-0.282924	-0.0452786	0.102001	0.630549	-0.481159	0.210233	1.02513	1.36332	0	0	0.489184	-0.430322	0.0763677	1.3088	1.10941	0	0
1.19	-3.11439	1.40019	-1.61141	0.88962	0.38481	0.93271	-0.314231	0.034785	-0.2487	0.185535	0.197125	0	0	0.232462	-0.000159221	-0.259632	0.0322988	0.0548902	0	0	-0.280156	-0.045755	0.101748	0.631304	-0.475295	0.161144	1.01968	1.5708	0	0	0.491001	-0.428915	0.0762588	1.30667	1.11463	0	0
1.2	-3.12852	1.40184	-1.59723	0.888581	0.394754	0.929818	-0.321877	0.0357221	-0.250114	0.192565	0.211603	0	0	0.223015	0.00537833	-0.249792	0	0.0450633	0	0	-0.275386	-0.0428248	0.100714	0.632143	-0.477342	0.184901	1.01859	1.48682	0	0	0.491428	-0.428596	0.0752612	1.30472	1.11426	0	0
1.21	-3.12383	1.39771	-1.60014	0.887769	0.4043	0.927279	-0.332609	0.0395829	-0.242602	0.20315	0.221195	0	0	0.226588	0.0106108	-0.247369	0	0.0395338	0	0	-0.27748	-0.0445326	0.0990711	0.634142	-0.475738	0.183293	1.01451	1.49755	0	0	0.49487	-0.428514	0.0762942	1.30253	1.11423	0	0
1.22	-3.12852	1.39504	-1.59706	0.887033	0.41462	0.924899	-0.344417	0.0376193	-0.243969	0.211883	0.235501	0	0	0.222765	0.0121504	-0.248482	0	0.0392605	0	0	-0.276446	-0.0449839	0.0998725	0.635546	-0.47358	0.182488	1.00949	1.50827	0	0	0.496398	-0.428741	0.0775261	1.30032	1.11297	0	0
1.23	-3.13214	1.39245	-1.59765	0.886575	0.425403	0.922619	-0.355378	0.0341597	-0.243781	0.222875	0.248869	0	0	0.21444	0.0132166	-0.245848	0	0.0395212	0	0	-0.274155	-0.0463086	0.1027	0.636048	-0.470661	0.182429	1.00459	1.5197	0	0	0.496843	-0.429801	0.0781296	1.29792	1.11341	0	0
1.24	-3.13375	1.38967	-1.60219	0.886297	0.436597	0.920484	-0.365643	0.0291113	-0.242398	0.236154	0.261792	0	0	0.201781	0.0140507	-0.240253	0	0.0374549	0	0	-0.271329	-0.0484427	0.107058	0.635393	-0.467356	0.180934	1.00026	1.53168	0	0	0.496775	-0.43155	0.0791092	1.29575	1.11623	0	0
1.25	-3.13868	1.38621	-1.60623	0.88592	0.44826	0.918636	-0.376804	0.0154175	-0.253822	0.252762	0.282241	0	0	0.185422	0.0122787	-0.242237	0.00141426	0.035852	0	0	-0.268103	-0.0486454	0.110225	0.62493	-0.492534	0.371414	1.07012	0.71714	0	0	0.491969	-0.435402	0.0766635	1.29489	1.11299	0	0
1.26	-3.13188	1.3816	-1.61981	0.885709	0.459659	0.916839	-0.387074	0.00763898	-0.250191	0.269473	0.291457	0	0	0.184013	0.0105961	-0.258308	0.0373986	0.0430428	0	0	-0.267483	-0.0529927	0.116358	0.621051	-0.491314	0.370098	1.06918	0.71599	0	0	0.493315	-0.43756	0.0805377	1.29299	1.11316	0	0
1.27	-3.11678	1.37676	-1.64238	0.885528	0.471102	0.915277	-0.395275	-0.00309056	-0.248028	0.290513	0.300554	0	0	0.184658	0.00952663	-0.284732	0.0747591	0.0531999	0	0	-0.267287	-0.059641	0.12346	0.615784	-0.489979	0.366805	1.06935	0.716636	0	0	0.495851	-0.440558	0.0860057	1.29068	1.1143	0	0
1.28	-3.09357	1.37167	-1.6725	0.885188	0.482537	0.914061	-0.401911	-0.0162262	-0.246691	0.314455	0.307795	0	0	0.182284	0.011142	-0.308304	0.100299	0.0510723	0	0	-0.267727	-0.0684408	0.129937	0.609602	-0.487722	0.360832	1.06958	0.718098	0	0	0.498966	-0.443491	0.0924472	1.28825	1.11439	0	0
1.29	-3.06584	1.36685	-1.70557	0.88451	0.493906	0.913116	-0.406146	-0.0308429	-0.246978	0.341469	0.313214	0	0	0.176258	0.0156139	-0.327206	0.113339	0.027041	0	0	-0.268488	-0.0782514	0.134373	0.603159	-0.48451	0.35375	1.07017	0.720512	0	0	0.501773	-0.445891	0.0971681	1.28596	1.11477	0	0
1.3	-3.03832	1.3629	-1.73649	0.883331	0.505259	0.912344	-0.406654	-0.0462091	-0.248751	0.373513	0.316366	0	0	0.16934	0.0213198	-0.346979	0.121082	-0.0137687	0	0	-0.26893	-0.0874426	0.136413	0.596817	-0.480968	0.345736	1.07084	0.722458	0	0	0.503683	-0.446866	0.0990246	1.28414	1.11704	0	0
1.31	-3.0116	1.36008	-1.76463	0.881684	0.51657	0.911714	-0.402171	-0.0623706	-0.252099	0.412704	0.315807	0	0	0.164643	0.0268326	-0.368845	0.131669	-0.0558732	0	0	-0.268718	-0.0956176	0.136009	0.590784	-0.477639	0.338718	1.07157	0.724705	0	0	0.504866	-0.446579	0.100037	1.28225	1.11733	0	0
1.32	-2.97746	1.35856	-1.79902	0.879693	0.527816	0.911289	-0.390185	-0.0824177	-0.259592	0.463095	0.312801	0	0	0.163881	0.0332431	-0.39224	0.148238	-0.0885185	0	0	-0.267131	-0.104634	0.134174	0.584074	-0.473879	0.329763	1.07273	0.73809	0	0	0.506043	-0.446189	0.101271	1.27903	1.11183	0	0
1.33	-2.95004	1.35351	-1.82473	0.877522	0.539018	0.911812	-0.381153	-0.101023	-0.263598	0.513233	0.299695	0	0	0.1578	0.0403594	-0.404002	0.163961	-0.11	0	0	-0.270277	-0.112523	0.129918	0.57872	-0.471098	0.325574	1.07448	0.738625	0	0	0.507037	-0.446019	0.100417	1.27528	1.11938	0	0
1.34	-2.92168	1.34834	-1.85046	0.87535	0.550054	0.912825	-0.366127	-0.12226	-0.268751	0.573355	0.279027	0	0	0.153169	0.0473049	-0.410096	0.185192	-0.115799	0	0	-0.274108	-0.120987	0.124981	0.572802	-0.467913	0.320322	1.07584	0.741306	0	0	0.508241	-0.446029	0.101079	1.27179	1.12549	0	0
1.35	-2.89746	1.34344	-1.87051	0.873103	0.560882	0.914224	-0.346223	-0.143784	-0.270021	0.639487	0.247149	0	0	0.150234	0.0522118	-0.415389	0.211782	-0.107575	0	0	-0.278661	-0.128365	0.118721	0.567529	-0.464937	0.315232	1.07682	0.743215	0	0	0.508859	-0.44684	0.103159	1.27011	1.12851	0	0
1.36	-2.85196	1.31538	-1.91172	0.869651	0.571901	0.918585	-0.348284	-0.184648	-0.282492	0.702985	0.195139	0	0	0.114057	0.0773815	-0.421	0.216601	-0.104192	0	0	-0.306057	-0.146545	0.108687	0.56708	-0.465057	0.315305	1.07856	0.743731	0	0	0.510282	-0.447132	0.103476	1.26973	1.13511	0	0
1.37	-2.83888	1.31441	-1.91751	0.866995	0.582538	0.920125	-0.314808	-0.204927	-0.284537	0.777441	0.1327	0	0	0.114157	0.0782499	-0.425485	0.243709	-0.0838053	0	0	-0.307531	-0.148646	0.0994574	0.564576	-0.464048	0.317302	1.07834	0.741966	0	0	0.508114	-0.448825	0.103712	1.27071	1.13767	0	0
1.38	-2.8482	1.33908	-1.89884	0.865002	0.592729	0.918668	-0.248136	-0.206214	-0.275179	0.860363	0.068217	0	0	0.1491	0.0578141	-0.428707	0.291734	-0.0527842	0	0	-0.284094	-0.13686	0.0916963	0.560461	-0.462332	0.320118	1.07669	0.740351	0	0	0.503083	-0.452044	0.103736	1.27266	1.14228	0	0
1.39	-2.81581	1.31782	-1.92663	0.861356	0.603778	0.922529	-0.235689	-0.242272	-0.278311	0.921781	-0.00466464	0	0	0.1138	0.0807779	-0.42695	0.284043	-0.0558854	0	0	-0.30464	-0.149547	0.0852652	0.572438	-0.43792	0.128398	1.00927	1.5708	0	0	0.505516	-0.452597	0.110832	1.27376	1.14738	0	0
1.4	-2.82931	1.34041	-1.90667	0.859635	0.613879	0.920965	-0.169617	-0.24077	-0.261583	0.997717	-0.0669373	0	0	0.140922	0.0621267	-0.428254	0.32098	-0.0344577	0	0	-0.282163	-0.135906	0.0757675	0.561907	-0.465768	0.337608	1.07569	0.726105	0	0	0.495645	-0.461304	0.112454	1.27924	1.12679	0	0
1.41	-2.8276	1.3383	-1.90548	0.857363	0.624243	0.922239	-0.132835	-0.25436	-0.247823	1.06054	-0.128396	0	0	0.129634	0.0654073	-0.425254	0.327541	-0.0272649	0	0	-0.284783	-0.135249	0.070405	0.562772	-0.466844	0.341678	1.07566	0.72979	0	0	0.492978	-0.465584	0.115384	1.28301	1.13006	0	0
1.42	-2.83195	1.3339	-1.90035	0.855439	0.634293	0.923698	-0.0983281	-0.265154	-0.230709	1.11795	-0.183347	0	0	0.115188	0.0681316	-0.423402	0.33309	-0.0182187	0	0	-0.290809	-0.134536	0.0671819	0.563861	-0.467845	0.343504	1.07714	0.726204	0	0	0.491268	-0.469683	0.116976	1.28708	1.12691	0	0
1.43	-2.84065	1.32729	-1.89249	0.853716	0.644083	0.925351	-0.0679104	-0.273386	-0.212259	1.16702	-0.230061	0	0	0.0976056	0.070871	-0.422158	0.33689	-0.00955905	0	0	-0.299965	-0.133874	0.0655201	0.564944	-0.468747	0.342571	1.08005	0.721089	0	0	0.490149	-0.473084	0.117687	1.29243	1.1229	0	0
1.44	-2.85013	1.31844	-1.88472	0.852012	0.653774	0.927255	-0.0431461	-0.280354	-0.194787	1.20782	-0.257759	0	0	0.0751581	0.0760382	-0.417239	0.33431	-0.00447105	0	0	-0.311702	-0.133602	0.064526	0.565557	-0.469775	0.339813	1.08504	0.715518	0	0	0.488795	-0.476194	0.119838	1.30061	1.09621	0	0
1.45	-2.85994	1.31014	-1.87525	0.850173	0.663584	0.929213	-0.0175013	-0.289387	-0.198278	1.25129	-0.262616	0	0	0.0525269	0.0812818	-0.411279	0.330541	7.89585e-05	0	0	-0.32228	-0.132311	0.0622879	0.565657	-0.47001	0.336443	1.08897	0.716935	0	0	0.48655	-0.477495	0.118914	1.30737	1.08899	0	0
1.46	-2.87346	1.30501	-1.86236	0.848507	0.673114	0.931108	0.00905562	-0.290134	-0.180812	1.29115	-0.236324	0	0	0.0335829	0.0837166	-0.406171	0.328169	0.00535662	0	0	-0.329885	-0.129127	0.0609413	0.565951	-0.469894	0.333679	1.0911	0.718841	0	0	0.484679	-0.477814	0.117865	1.31198	1.08205	0	0
1.47	-2.88729	1.30037	-1.84802	0.846688	0.682592	0.933112	0.0340764	-0.289449	-0.166123	1.32629	-0.198772	0	0	0.0135358	0.0866904	-0.398158	0.322425	0.00912496	0	0	-0.336804	-0.124995	0.0586528	0.566752	-0.470232	0.332992	1.09287	0.71686	0	0	0.482569	-0.476679	0.112844	1.31442	1.10106	0	0
